PathFileType	4	(X/Y/Z)	27_2_16_p1_0-302_filt_butterworth.trc
DataRate	CameraRate	NumFrames	NumMarkers	Units	OrigDataRate	OrigDataStartFrame	OrigNumFrames
59.0	59.0	5	27	m	59.0	264	302
Frame#	Time	RHip			RKnee			RAnkle			RBigToe			RSmallToe			RHeel			LHip			LKnee			LAnkle			LBigToe			LSmallToe			LHeel			Neck			Head			Nose			RShoulder			RElbow			RWrist			RThumb			RIndex			RPinky			LShoulder			LElbow			LWrist			LThumb			LIndex			LPinky			
		X1	Y1	Z1	X2	Y2	Z2	X3	Y3	Z3	X4	Y4	Z4	X5	Y5	Z5	X6	Y6	Z6	X7	Y7	Z7	X8	Y8	Z8	X9	Y9	Z9	X10	Y10	Z10	X11	Y11	Z11	X12	Y12	Z12	X13	Y13	Z13	X14	Y14	Z14	X15	Y15	Z15	X16	Y16	Z16	X17	Y17	Z17	X18	Y18	Z18	X19	Y19	Z19	X20	Y20	Z20	X21	Y21	Z21	X22	Y22	Z22	X23	Y23	Z23	X24	Y24	Z24	X25	Y25	Z25	X26	Y26	Z26	X27	Y27	Z27	
264	4.47457627118644	0.12878160571772573	0.6416679561068581	1.0332130222309568	0.12517755990807744	0.6724189360099869	1.4290660192772322	0.15277503721157543	0.8040895720168019	1.843162808654535	0.12752661771622648	0.5884693650281305	1.8389097989029706	0.18122221490613874	0.5998910110538389	1.8278360280277912	0.1531400879876626	0.8968723030991993	1.9102446243741047	-0.06442998332875015	0.6442286498163076	1.0374076049528966	-0.049138170568693504	0.7545123651775235	1.4444098818695374	-0.022330796285821543	0.7985558724182344	1.8419302633986772	-0.03163599505834078	0.5942647710989224	1.82370842331949	-0.08161312493010546	0.655188655005531	1.8423767113797271	-0.0038699969384916803	0.8503907650769345	1.8849166034088203	0.02271007335329881	0.6065312044764557	0.49363988300229256	0.022141426779167108	0.5335468694986915	0.23037091671437962	0.00806588618790135	0.4625810143875127	0.3716992833204225	0.15335194118867107	0.5818604592442431	0.5763234825489477	0.20113642971583706	0.5929758685273022	0.8138174885431522	0.2097241951819666	0.5043248313149814	1.0212723669600878	0.15783917252438812	0.4075599202368318	1.1307141698338763	0.17372143158164496	0.40209717589214977	1.142727355162792	0.19510944759955906	0.48050805261036156	1.1505845830515613	-0.11652808331995276	0.644043399827801	0.5825298096015008	-0.16699696314231288	0.610084859806544	0.8104892062047693	-0.1633615240007276	0.5493897191345327	1.0239375426505855	-0.11673374465598617	0.4880572626703382	1.0926822561232494	-0.1471687242630415	0.43069538614382896	1.1061100443660827	-0.1722039009335517	0.5038202428817997	1.1288392888123746
265	4.491525423728813	0.1254820091448163	0.6471223330180198	1.0335601505924958	0.12441699027576061	0.6772906055694969	1.4339008939888644	0.15405428103158975	0.8146996809484081	1.8484214045059255	0.12804083853762863	0.5847920709083225	1.8369302131073053	0.18170270434563426	0.5998118532578001	1.8277448132753866	0.15310220238010924	0.8969595699799418	1.9102263795088843	-0.06456908740494095	0.6527724957382718	1.0374046824786713	-0.05009375726238459	0.7544733927760613	1.4446805780220124	-0.0224911281005896	0.7986789856430543	1.8409846907129197	-0.03211837705130219	0.5940529717644604	1.8228782857408983	-0.08161370784280854	0.654977940836817	1.842263083805679	-0.0040541746528123535	0.8493738874111723	1.881992853744613	0.0227439755838678	0.6063886918711852	0.493660868644374	0.022085202661799894	0.5336124846335778	0.2295444607080755	0.008085683216447787	0.46258221540137556	0.3716300843557216	0.15332766621863556	0.5817968493005755	0.5766097158084275	0.19455245065851726	0.5857761501733489	0.8123109815390417	0.19523581851088842	0.504799488878686	1.0221558929254806	0.13814642595311538	0.41002854612897177	1.1280170216061989	0.15874412661404785	0.4046787768388814	1.1439966860774073	0.1776496583710849	0.4742212104653704	1.1546270427438519	-0.11758531348620663	0.6405888454511492	0.5835861991387417	-0.16451784155270016	0.600851004551391	0.8086761774288758	-0.15943314651570784	0.5526477458142	1.0244441660749415	-0.09982003222079741	0.4885395990784278	1.0907355915995025	-0.1291474172464106	0.4352333916905314	1.1068100595365766	-0.16017650754211762	0.502114260030055	1.1283690006452445
266	4.508474576271187	0.12203625096208404	0.6499556977175938	1.032769299678454	0.12319549066621376	0.683187566566738	1.4373022691972048	0.155229290304176	0.8209290083677091	1.8514562772279388	0.12817984788113065	0.5832462897728496	1.8361613244479247	0.1816475468889874	0.5995448258951722	1.8276151739066855	0.15306791453474441	0.8970099226647226	1.9103012670817618	-0.06572960514892862	0.6611939626867214	1.0375060935053624	-0.05044909311494308	0.754704253710614	1.443215928809806	-0.022709493277646674	0.7989142208819638	1.8398398876590072	-0.03216793913998123	0.5935862880406165	1.822614111004361	-0.08162476657669675	0.6544680758292394	1.8420720891245836	-0.004275040256761875	0.8487257759560917	1.8807621386788786	0.02275236966177689	0.6062643330905936	0.4939784716726624	0.022139455183029757	0.5337164745546323	0.22923672605270445	0.007955697471214954	0.4622680003802171	0.37163869549105716	0.1532998338929602	0.5816696224323175	0.5765756709202574	0.19174349435920654	0.5842252263879024	0.8113466232137438	0.18081310536230177	0.5048228798485646	1.0212161186707476	0.11453963657911771	0.4101378016417404	1.1187365179064794	0.13660336708287424	0.4073879430421332	1.1433982437011139	0.1649141611038488	0.46697819953469266	1.1572731704931318	-0.11804928347093299	0.6392891709347548	0.5841810956588036	-0.16398974713068235	0.5967925492404192	0.8065969515628512	-0.1560694108441264	0.5562522851138922	1.025197494337402	-0.0885301814110134	0.48946834116844556	1.0895528615385992	-0.10975014320027879	0.4537914223876485	1.1102188133451059	-0.14299970298665995	0.4989410637779906	1.127601601670003
267	4.52542372881356	0.11843177601536577	0.6492772279549687	1.0310136590208419	0.1219371155424823	0.6874527258288806	1.4391264188717807	0.15572884320571875	0.8225826789237923	1.8518725136255787	0.12833867262067938	0.5857810672126166	1.8376414688901976	0.18144276737737006	0.5991502040940003	1.827438398851394	0.15305858316467713	0.8970659085698012	1.9103162183632483	-0.06683105760675856	0.6658223499679383	1.037440784938309	-0.049897900083931884	0.7549437454244787	1.4406143511853822	-0.022881403430509806	0.7991080102456395	1.8390473991489795	-0.031833075821627886	0.5920708130274394	1.8220150114497784	-0.08134732427473673	0.6525700439095297	1.8411870769717935	-0.0044102276502369624	0.8484677406326361	1.880682896539689	0.02273948518570916	0.6061860540215532	0.49475813898885773	0.022604665227974646	0.5338133242432337	0.22921664589836407	0.007850853038006563	0.4620289378663841	0.3719852449135187	0.15328241977351953	0.5815352329162213	0.5763918842011864	0.1906526198327562	0.5847361985681011	0.8107402467737123	0.16800061812652306	0.5034652567419147	1.0197658024453522	0.09243446904154573	0.4072492075125846	1.1060363697801874	0.11200863891274494	0.4043516724714514	1.1410876968781638	0.15234147873672205	0.4563601249158825	1.1587932839234591	-0.11771180446608494	0.6393605286646338	0.5843296081123002	-0.16451222806063193	0.5963534209139378	0.8049730522255754	-0.15076630327470664	0.5553657737283801	1.025198303454367	-0.08070182676997174	0.48749649864616906	1.0864353351889595	-0.0924336961145353	0.4697201442145213	1.110569465793615	-0.12358034062228924	0.4958037055328769	1.1271194830131885
268	4.5423728813559325	0.11531073861380232	0.6456017447407844	1.0290977605909462	0.1211762610931016	0.6890409214592723	1.4401587120274177	0.15568881663372006	0.8222201609076155	1.850631061287793	0.12850087217344283	0.5921941494555579	1.841166806988751	0.18140087754457743	0.5991594744193742	1.8274622816198567	0.15306652573107268	0.8971170981708637	1.9096750049858453	-0.0675293573110361	0.6668335535693508	1.0369538544078578	-0.04919277551969001	0.7538734389479091	1.437625828222117	-0.02296097310523902	0.7991641142985798	1.8388009671831467	-0.030943535336979616	0.5908282967413792	1.8214913141433595	-0.08049063680349013	0.6483542187099993	1.8390724690561884	-0.004397317420647141	0.848430936884144	1.8809113077682942	0.022718462594436915	0.606169100283844	0.4957523202099729	0.02372702410392593	0.5338950372715212	0.22919679259105655	0.00781904851131577	0.4619300925729629	0.37286431047263724	0.1532680905853883	0.5814418401385987	0.5762871785833269	0.1894470601446538	0.5842851307355812	0.8111204907583125	0.15819956538914484	0.5002079186620042	1.0189644969673661	0.07425164530072702	0.4021371897236485	1.0953276577024298	0.09111857668690031	0.39625660430597276	1.138947582811468	0.13500704569847422	0.43909749704311196	1.1580886904576118	-0.11634792060246195	0.6396626861401576	0.583837319992049	-0.165030772662563	0.5956571060551931	0.8044413984466536	-0.14115108572629465	0.5446883194565123	1.02314656698835	-0.07199386218413575	0.4807235560219598	1.0795242569703685	-0.07769563063093748	0.4739539311836547	1.105270807368218	-0.10578617193573446	0.4931686816069294	1.1270387941078495
